<mxfile host="app.diagrams.net" agent="Mozilla/5.0 (Windows NT 10.0; Win64; x64; rv:132.0) Gecko/20100101 Firefox/132.0" version="24.8.6">
  <diagram name="Page-1" id="p9yXSGwv0Ma8P5RC0_F1">
    <mxGraphModel dx="1434" dy="698" grid="0" gridSize="10" guides="1" tooltips="1" connect="1" arrows="1" fold="1" page="1" pageScale="1" pageWidth="850" pageHeight="1100" math="0" shadow="0">
      <root>
        <mxCell id="0" />
        <mxCell id="1" parent="0" />
        <mxCell id="c96_3Ocna6pA6UWMz_O9-1" value="LEDs" style="text;html=1;align=center;verticalAlign=middle;resizable=0;points=[];autosize=1;strokeColor=none;fillColor=none;" parent="1" vertex="1">
          <mxGeometry x="285" y="103" width="50" height="30" as="geometry" />
        </mxCell>
        <mxCell id="c96_3Ocna6pA6UWMz_O9-2" value="" style="rounded=0;whiteSpace=wrap;html=1;fillColor=none;dashed=1;" parent="1" vertex="1">
          <mxGeometry x="266" y="316" width="147" height="152" as="geometry" />
        </mxCell>
        <mxCell id="c96_3Ocna6pA6UWMz_O9-3" value="" style="rounded=0;whiteSpace=wrap;html=1;dashed=1;fillColor=none;" parent="1" vertex="1">
          <mxGeometry x="70" y="294" width="130" height="180" as="geometry" />
        </mxCell>
        <mxCell id="c96_3Ocna6pA6UWMz_O9-4" value="Facial Emotion Analysis System" style="rounded=0;whiteSpace=wrap;html=1;" parent="1" vertex="1">
          <mxGeometry x="160" y="80" width="120" height="148" as="geometry" />
        </mxCell>
        <mxCell id="c96_3Ocna6pA6UWMz_O9-5" value="" style="endArrow=classic;html=1;rounded=0;" parent="1" edge="1">
          <mxGeometry width="50" height="50" relative="1" as="geometry">
            <mxPoint x="90" y="110" as="sourcePoint" />
            <mxPoint x="160" y="110" as="targetPoint" />
          </mxGeometry>
        </mxCell>
        <mxCell id="c96_3Ocna6pA6UWMz_O9-6" value="" style="endArrow=classic;html=1;rounded=0;" parent="1" edge="1">
          <mxGeometry width="50" height="50" relative="1" as="geometry">
            <mxPoint x="90" y="160" as="sourcePoint" />
            <mxPoint x="160" y="160" as="targetPoint" />
          </mxGeometry>
        </mxCell>
        <mxCell id="c96_3Ocna6pA6UWMz_O9-7" value="" style="endArrow=classic;html=1;rounded=0;" parent="1" edge="1">
          <mxGeometry width="50" height="50" relative="1" as="geometry">
            <mxPoint x="280" y="133" as="sourcePoint" />
            <mxPoint x="350" y="133" as="targetPoint" />
          </mxGeometry>
        </mxCell>
        <mxCell id="c96_3Ocna6pA6UWMz_O9-8" value="Camera" style="text;html=1;align=center;verticalAlign=middle;resizable=0;points=[];autosize=1;strokeColor=none;fillColor=none;" parent="1" vertex="1">
          <mxGeometry x="85" y="78" width="70" height="30" as="geometry" />
        </mxCell>
        <mxCell id="c96_3Ocna6pA6UWMz_O9-9" value="Ultrasonic Sensor" style="text;html=1;align=center;verticalAlign=middle;resizable=0;points=[];autosize=1;strokeColor=none;fillColor=none;" parent="1" vertex="1">
          <mxGeometry x="35" y="130" width="120" height="30" as="geometry" />
        </mxCell>
        <mxCell id="c96_3Ocna6pA6UWMz_O9-10" style="edgeStyle=orthogonalEdgeStyle;rounded=0;orthogonalLoop=1;jettySize=auto;html=1;exitX=1;exitY=0.75;exitDx=0;exitDy=0;entryX=0;entryY=0.25;entryDx=0;entryDy=0;" parent="1" source="c96_3Ocna6pA6UWMz_O9-12" edge="1">
          <mxGeometry relative="1" as="geometry">
            <mxPoint x="490" y="424" as="targetPoint" />
          </mxGeometry>
        </mxCell>
        <mxCell id="c96_3Ocna6pA6UWMz_O9-11" style="edgeStyle=orthogonalEdgeStyle;rounded=0;orthogonalLoop=1;jettySize=auto;html=1;exitX=1;exitY=0.25;exitDx=0;exitDy=0;entryX=0.5;entryY=0;entryDx=0;entryDy=0;" parent="1" source="c96_3Ocna6pA6UWMz_O9-12" target="c96_3Ocna6pA6UWMz_O9-28" edge="1">
          <mxGeometry relative="1" as="geometry" />
        </mxCell>
        <mxCell id="c96_3Ocna6pA6UWMz_O9-12" value="Jetson Orin Nano" style="rounded=0;whiteSpace=wrap;html=1;" parent="1" vertex="1">
          <mxGeometry x="280" y="334" width="120" height="120" as="geometry" />
        </mxCell>
        <mxCell id="c96_3Ocna6pA6UWMz_O9-13" style="edgeStyle=orthogonalEdgeStyle;rounded=0;orthogonalLoop=1;jettySize=auto;html=1;exitX=1;exitY=0.5;exitDx=0;exitDy=0;entryX=0;entryY=0.75;entryDx=0;entryDy=0;" parent="1" source="c96_3Ocna6pA6UWMz_O9-14" target="c96_3Ocna6pA6UWMz_O9-12" edge="1">
          <mxGeometry relative="1" as="geometry" />
        </mxCell>
        <mxCell id="c96_3Ocna6pA6UWMz_O9-14" value="HC-SR04 Ultrasonic Sensor" style="rounded=0;whiteSpace=wrap;html=1;" parent="1" vertex="1">
          <mxGeometry x="80" y="404" width="100" height="40" as="geometry" />
        </mxCell>
        <mxCell id="c96_3Ocna6pA6UWMz_O9-15" value="Arducam 5MP USB Camera" style="rounded=0;whiteSpace=wrap;html=1;" parent="1" vertex="1">
          <mxGeometry x="80" y="334" width="100" height="40" as="geometry" />
        </mxCell>
        <mxCell id="c96_3Ocna6pA6UWMz_O9-16" style="edgeStyle=orthogonalEdgeStyle;rounded=0;orthogonalLoop=1;jettySize=auto;html=1;exitX=1;exitY=0.5;exitDx=0;exitDy=0;entryX=0;entryY=0.167;entryDx=0;entryDy=0;entryPerimeter=0;" parent="1" source="c96_3Ocna6pA6UWMz_O9-15" target="c96_3Ocna6pA6UWMz_O9-12" edge="1">
          <mxGeometry relative="1" as="geometry" />
        </mxCell>
        <mxCell id="c96_3Ocna6pA6UWMz_O9-17" value="USB 2.0" style="text;html=1;align=center;verticalAlign=middle;resizable=0;points=[];autosize=1;strokeColor=none;fillColor=none;" parent="1" vertex="1">
          <mxGeometry x="199" y="326" width="63" height="26" as="geometry" />
        </mxCell>
        <mxCell id="c96_3Ocna6pA6UWMz_O9-18" value="Analog" style="text;html=1;align=center;verticalAlign=middle;resizable=0;points=[];autosize=1;strokeColor=none;fillColor=none;" parent="1" vertex="1">
          <mxGeometry x="200" y="392" width="60" height="30" as="geometry" />
        </mxCell>
        <mxCell id="c96_3Ocna6pA6UWMz_O9-19" value="Input" style="text;html=1;align=center;verticalAlign=middle;resizable=0;points=[];autosize=1;strokeColor=none;fillColor=none;" parent="1" vertex="1">
          <mxGeometry x="65" y="264" width="50" height="30" as="geometry" />
        </mxCell>
        <mxCell id="c96_3Ocna6pA6UWMz_O9-20" value="Digital" style="text;html=1;align=center;verticalAlign=middle;resizable=0;points=[];autosize=1;strokeColor=none;fillColor=none;" parent="1" vertex="1">
          <mxGeometry x="410" y="392" width="60" height="30" as="geometry" />
        </mxCell>
        <mxCell id="c96_3Ocna6pA6UWMz_O9-21" value="Facial Emotion Analysis System" style="text;html=1;align=center;verticalAlign=middle;resizable=0;points=[];autosize=1;strokeColor=none;fillColor=none;" parent="1" vertex="1">
          <mxGeometry x="251" y="288" width="185" height="26" as="geometry" />
        </mxCell>
        <mxCell id="c96_3Ocna6pA6UWMz_O9-22" value="" style="endArrow=classic;html=1;rounded=0;" parent="1" edge="1">
          <mxGeometry width="50" height="50" relative="1" as="geometry">
            <mxPoint x="90" y="207" as="sourcePoint" />
            <mxPoint x="160" y="207" as="targetPoint" />
          </mxGeometry>
        </mxCell>
        <mxCell id="c96_3Ocna6pA6UWMz_O9-23" value="Power, 19VDC" style="text;html=1;align=center;verticalAlign=middle;resizable=0;points=[];autosize=1;strokeColor=none;fillColor=none;" parent="1" vertex="1">
          <mxGeometry x="58" y="182" width="97" height="26" as="geometry" />
        </mxCell>
        <mxCell id="c96_3Ocna6pA6UWMz_O9-24" style="edgeStyle=orthogonalEdgeStyle;rounded=0;orthogonalLoop=1;jettySize=auto;html=1;exitX=0.5;exitY=0;exitDx=0;exitDy=0;entryX=0.5;entryY=1;entryDx=0;entryDy=0;" parent="1" source="c96_3Ocna6pA6UWMz_O9-25" target="c96_3Ocna6pA6UWMz_O9-12" edge="1">
          <mxGeometry relative="1" as="geometry" />
        </mxCell>
        <mxCell id="c96_3Ocna6pA6UWMz_O9-25" value="Liteon Power Adapter 19 VDC 2.37 A" style="rounded=0;whiteSpace=wrap;html=1;" parent="1" vertex="1">
          <mxGeometry x="279.5" y="515" width="120" height="60" as="geometry" />
        </mxCell>
        <mxCell id="c96_3Ocna6pA6UWMz_O9-26" value="" style="endArrow=classic;html=1;rounded=0;" parent="1" edge="1">
          <mxGeometry width="50" height="50" relative="1" as="geometry">
            <mxPoint x="212" y="548" as="sourcePoint" />
            <mxPoint x="280" y="548" as="targetPoint" />
          </mxGeometry>
        </mxCell>
        <mxCell id="c96_3Ocna6pA6UWMz_O9-27" value="110 VAC" style="text;html=1;align=center;verticalAlign=middle;resizable=0;points=[];autosize=1;strokeColor=none;fillColor=none;" parent="1" vertex="1">
          <mxGeometry x="207" y="527" width="63" height="26" as="geometry" />
        </mxCell>
        <mxCell id="c96_3Ocna6pA6UWMz_O9-28" value="&lt;div&gt;NSS1C301ET4G&lt;/div&gt;&lt;div&gt;NPN Transistor&lt;br&gt;&lt;/div&gt;" style="rounded=0;whiteSpace=wrap;html=1;" parent="1" vertex="1">
          <mxGeometry x="491" y="394" width="105" height="61" as="geometry" />
        </mxCell>
        <mxCell id="c96_3Ocna6pA6UWMz_O9-29" value="" style="endArrow=classic;html=1;rounded=0;" parent="1" edge="1">
          <mxGeometry width="50" height="50" relative="1" as="geometry">
            <mxPoint x="596" y="424" as="sourcePoint" />
            <mxPoint x="646" y="424" as="targetPoint" />
          </mxGeometry>
        </mxCell>
        <mxCell id="c96_3Ocna6pA6UWMz_O9-30" value="5050 SMD LED" style="rounded=0;whiteSpace=wrap;html=1;" parent="1" vertex="1">
          <mxGeometry x="647" y="395" width="65" height="60" as="geometry" />
        </mxCell>
        <mxCell id="c96_3Ocna6pA6UWMz_O9-31" value="3.3V" style="text;html=1;align=center;verticalAlign=middle;resizable=0;points=[];autosize=1;strokeColor=none;fillColor=none;" parent="1" vertex="1">
          <mxGeometry x="592.5" y="401" width="42" height="26" as="geometry" />
        </mxCell>
        <mxCell id="c96_3Ocna6pA6UWMz_O9-32" value="3.3V" style="text;html=1;align=center;verticalAlign=middle;resizable=0;points=[];autosize=1;strokeColor=none;fillColor=none;" parent="1" vertex="1">
          <mxGeometry x="440.5" y="341" width="42" height="26" as="geometry" />
        </mxCell>
        <mxCell id="c96_3Ocna6pA6UWMz_O9-33" value="" style="rounded=0;whiteSpace=wrap;html=1;fillColor=none;dashed=1;" parent="1" vertex="1">
          <mxGeometry x="633" y="380" width="95" height="90" as="geometry" />
        </mxCell>
        <mxCell id="c96_3Ocna6pA6UWMz_O9-34" value="Output Actuator" style="text;html=1;align=center;verticalAlign=middle;resizable=0;points=[];autosize=1;strokeColor=none;fillColor=none;" parent="1" vertex="1">
          <mxGeometry x="630" y="354" width="101" height="26" as="geometry" />
        </mxCell>
        <mxCell id="c96_3Ocna6pA6UWMz_O9-35" value="" style="rounded=0;whiteSpace=wrap;html=1;fillColor=none;dashed=1;" parent="1" vertex="1">
          <mxGeometry x="198" y="500" width="218" height="90" as="geometry" />
        </mxCell>
        <mxCell id="c96_3Ocna6pA6UWMz_O9-36" value="Power" style="text;html=1;align=center;verticalAlign=middle;resizable=0;points=[];autosize=1;strokeColor=none;fillColor=none;" parent="1" vertex="1">
          <mxGeometry x="196" y="593" width="53" height="26" as="geometry" />
        </mxCell>
        <mxCell id="c96_3Ocna6pA6UWMz_O9-37" value="&lt;b&gt;Level 0 Block Diagram&lt;br&gt;&lt;/b&gt;" style="text;html=1;align=center;verticalAlign=middle;resizable=0;points=[];autosize=1;strokeColor=none;fillColor=none;" parent="1" vertex="1">
          <mxGeometry x="35" y="31" width="144" height="26" as="geometry" />
        </mxCell>
        <mxCell id="c96_3Ocna6pA6UWMz_O9-38" value="&lt;b&gt;Level 1 Block Diagram&lt;br&gt;&lt;/b&gt;" style="text;html=1;align=center;verticalAlign=middle;resizable=0;points=[];autosize=1;strokeColor=none;fillColor=none;" parent="1" vertex="1">
          <mxGeometry x="35" y="238" width="144" height="26" as="geometry" />
        </mxCell>
        <mxCell id="eWtSBdGTkhUZfqGAalR1-1" value="&lt;div&gt;&lt;b&gt;Team 6 -&amp;nbsp;Emotion-Based-Smart-Home-System &lt;br&gt;&lt;/b&gt;&lt;/div&gt;&lt;div align=&quot;left&quot;&gt;&lt;b&gt;Kamal, Kilo, Samuel, Luan&lt;br&gt;&lt;/b&gt;&lt;/div&gt;" style="text;html=1;align=center;verticalAlign=middle;resizable=0;points=[];autosize=1;strokeColor=none;fillColor=none;" vertex="1" parent="1">
          <mxGeometry x="40" y="663" width="278" height="41" as="geometry" />
        </mxCell>
      </root>
    </mxGraphModel>
  </diagram>
</mxfile>
